<?xml version="1.0" encoding="UTF-8" standalone="no"?>
<svg
   viewBox="0 0 548 548"
   version="1.1"
   id="svg1"
   sodipodi:docname="glass.svg"
   width="548"
   height="548"
   inkscape:version="1.4.2 (f4327f4, 2025-05-13)"
   xmlns:inkscape="http://www.inkscape.org/namespaces/inkscape"
   xmlns:sodipodi="http://sodipodi.sourceforge.net/DTD/sodipodi-0.dtd"
   xmlns="http://www.w3.org/2000/svg"
   xmlns:svg="http://www.w3.org/2000/svg">
  <!--!Font Awesome Free v7.0.0 by @fontawesome - https://fontawesome.com License - https://fontawesome.com/license/free Copyright 2025 Fonticons, Inc.-->
  <path
     d="m 434.04735,225.99735 c 0,45.9 -14.9,88.3 -40,122.7 l 126.6,126.7 c 12.5,12.5 12.5,32.8 0,45.3 -12.5,12.5 -32.8,12.5 -45.3,0 l -126.6,-126.7 c -34.4,25.1 -76.8,40 -122.7,40 -114.9,0 -208.000002,-93.1 -208.000002,-208 0,-114.9 93.100002,-208.000005 208.000002,-208.000005 114.9,0 208,93.100005 208,208.000005 z m -208,144 a 144,144 0 1 0 0,-288.000005 144,144 0 1 0 0,288.000005 z"
     id="path1"
     style="fill:#beabee;fill-opacity:1;stroke:none;stroke-width:24;stroke-dasharray:none;stroke-opacity:1;paint-order:markers stroke fill" />
</svg>
